#!OML:ASF C:\Vicon Data\Big\jianyuan-12\jianyuan\Session 1\Capture.male.ASF
:FULLY-SPECIFIED
:DEGREES
84
root -8.576673 17.123375 -16.932546 5.380408 7.209328 2.623625
lowerback -8.355799 1.121623 -5.469788 
upperback 2.450925 2.200101 -1.712192 
thorax 7.149185 0.863738 1.582119 
lowerneck -3.731173 -7.046212 -5.382118 
upperneck 6.749539 -9.920343 9.447331 
head 3.360665 -4.761162 3.275320 
rclavicle 0.000000 0.000000 
rhumerus -25.600865 -18.669585 -85.830981 
rradius 43.838664 
rwrist 23.367908 
rhand -19.168534 -5.900005 
rfingers 0.000000 
rthumb 7.142460 -35.759454 
lclavicle 0.000000 0.000000 
lhumerus -41.391106 32.731180 69.256483 
lradius 27.908960 
lwrist -50.637375 
lhand -8.433608 4.147260 
lfingers 0.000000 
lthumb 17.491574 33.380281 
rfemur -11.226621 1.589836 20.950306 
rtibia 30.907602 
rfoot -30.006116 -3.255571 
rtoes -3.988781 
lfemur -32.562893 0.679366 -21.641630 
ltibia 44.796104 
lfoot -18.910133 5.141634 
ltoes -22.095186 
85
root -8.573312 17.122889 -16.860818 5.475033 7.182607 2.643671
lowerback -8.388954 1.194907 -5.483379 
upperback 2.436535 2.304097 -1.768099 
thorax 7.147939 0.915158 1.545987 
lowerneck -3.763984 -7.071966 -5.341570 
upperneck 6.768709 -9.961500 9.476883 
head 3.374556 -4.778478 3.273784 
rclavicle 0.000000 0.000000 
rhumerus -25.371993 -18.761799 -85.939070 
rradius 44.048601 
rwrist 23.458201 
rhand -19.084513 -5.989118 
rfingers 0.000000 
rthumb 7.223543 -35.845843 
lclavicle 0.000000 0.000000 
lhumerus -41.571977 32.922567 68.976647 
lradius 27.871011 
lwrist -50.723270 
lhand -8.585898 4.121954 
lfingers 0.000000 
lthumb 17.345027 33.367966 
rfemur -10.934424 1.658669 20.965549 
rtibia 30.677416 
rfoot -30.113624 -3.290552 
rtoes -3.850779 
lfemur -32.668312 0.466203 -21.676593 
ltibia 43.041128 
lfoot -18.561315 5.030829 
ltoes -22.790506 
86
root -8.569071 17.128073 -16.787569 5.477750 7.089232 2.675187
lowerback -8.343135 1.234625 -5.497869 
upperback 2.443461 2.355989 -1.777202 
thorax 7.125484 0.940530 1.550407 
lowerneck -3.746871 -6.992252 -5.425444 
upperneck 6.753757 -9.844006 9.454795 
head 3.361186 -4.723349 3.288360 
rclavicle 0.000000 0.000000 
rhumerus -25.086446 -18.640666 -85.977469 
rradius 44.132255 
rwrist 23.445426 
rhand -18.810681 -5.878642 
rfingers 0.000000 
rthumb 7.487879 -35.726063 
lclavicle 0.000000 0.000000 
lhumerus -41.860303 33.188506 68.669754 
lradius 27.820825 
lwrist -51.039455 
lhand -8.745491 4.008849 
lfingers 0.000000 
lthumb 17.191454 33.268337 
rfemur -10.516990 1.687762 20.956762 
rtibia 30.402116 
rfoot -30.174853 -3.310682 
rtoes -4.037871 
lfemur -32.627786 0.237167 -21.693814 
ltibia 41.278679 
lfoot -18.291016 4.932172 
ltoes -22.748236 
87
root -8.564235 17.132208 -16.715587 5.476385 7.031251 2.591673
lowerback -8.300109 1.239840 -5.440282 
upperback 2.452884 2.349840 -1.694498 
thorax 7.109470 0.939158 1.603376 
lowerneck -3.811314 -6.987612 -5.445600 
upperneck 6.762652 -9.810384 9.229275 
head 3.361523 -4.711387 3.223351 
rclavicle 0.000000 0.000000 
rhumerus -24.796882 -18.348530 -85.976498 
rradius 44.188732 
rwrist 23.375562 
rhand -18.714010 -5.815958 
rfingers 0.000000 
rthumb 7.581189 -35.660058 
lclavicle 0.000000 0.000000 
lhumerus -42.163415 33.402730 68.505076 
lradius 27.794387 
lwrist -51.262589 
lhand -8.788920 3.857320 
lfingers 0.000000 
lthumb 17.149656 33.120511 
rfemur -10.061441 1.781916 21.074445 
rtibia 30.021255 
rfoot -30.190828 -3.384235 
rtoes -4.094928 
lfemur -32.609695 -0.039436 -21.550942 
ltibia 39.538890 
lfoot -17.943859 4.783467 
ltoes -23.261536 
88
root -8.563451 17.134515 -16.644611 5.556245 6.767337 2.535628
lowerback -8.355495 1.375743 -5.389082 
upperback 2.448945 2.532683 -1.751624 
thorax 7.129717 1.031370 1.541452 
lowerneck -3.829776 -7.024021 -5.267568 
upperneck 6.699302 -9.864887 9.215162 
head 3.340437 -4.735559 3.188174 
rclavicle 0.000000 0.000000 
rhumerus -24.528212 -18.387399 -86.150366 
rradius 44.352874 
rwrist 23.306024 
rhand -18.766843 -5.909791 
rfingers 0.000000 
rthumb 7.530184 -35.755708 
lclavicle 0.000000 0.000000 
lhumerus -42.269340 33.404918 68.295517 
lradius 27.804393 
lwrist -51.117717 
lhand -8.588924 3.860602 
lfingers 0.000000 
lthumb 17.342099 33.106736 
rfemur -9.712339 1.933130 21.153152 
rtibia 29.614784 
rfoot -30.119023 -3.452116 
rtoes -4.314477 
lfemur -32.637097 -0.132559 -21.419469 
ltibia 37.785983 
lfoot -17.617950 4.550856 
ltoes -23.256785 
89
root -8.558476 17.138598 -16.572485 5.521023 6.749363 2.526111
lowerback -8.255028 1.413866 -5.349984 
upperback 2.456415 2.573961 -1.785267 
thorax 7.080211 1.055197 1.486789 
lowerneck -3.842707 -7.023780 -5.291227 
upperneck 6.758664 -9.875821 9.294269 
head 3.366341 -4.737838 3.213579 
rclavicle 0.000000 0.000000 
rhumerus -24.299918 -18.412228 -86.246476 
rradius 44.449665 
rwrist 23.413368 
rhand -18.701873 -5.867150 
rfingers 0.000000 
rthumb 7.592913 -35.710866 
lclavicle 0.000000 0.000000 
lhumerus -42.456041 33.494899 68.043190 
lradius 27.784502 
lwrist -51.035746 
lhand -8.032647 4.227020 
lfingers 0.000000 
lthumb 17.877447 33.425309 
rfemur -9.208030 1.813324 21.193931 
rtibia 29.235997 
rfoot -30.095168 -3.450792 
rtoes -4.694042 
lfemur -32.500394 -0.596928 -21.259227 
ltibia 36.019514 
lfoot -17.426526 4.323835 
ltoes -22.340800 
90
root -8.551086 17.139400 -16.498774 5.556837 6.766711 2.510169
lowerback -8.268870 1.395985 -5.349259 
upperback 2.459399 2.548256 -1.726295 
thorax 7.090222 1.041386 1.545426 
lowerneck -3.829380 -7.012834 -5.485656 
upperneck 6.751927 -9.849827 9.330225 
head 3.371370 -4.728248 3.257018 
rclavicle 0.000000 0.000000 
rhumerus -23.998720 -18.266416 -86.283817 
rradius 44.498465 
rwrist 23.307989 
rhand -18.682932 -5.907472 
rfingers 0.000000 
rthumb 7.611153 -35.750559 
lclavicle 0.000000 0.000000 
lhumerus -42.777728 33.762695 67.850155 
lradius 27.768665 
lwrist -51.320227 
lhand -8.090171 4.327453 
lfingers 0.000000 
lthumb 17.822052 33.530797 
rfemur -8.789146 1.681739 21.232522 
rtibia 28.875711 
rfoot -30.059060 -3.470100 
rtoes -5.239953 
lfemur -32.439096 -0.922062 -21.164097 
ltibia 34.236540 
lfoot -17.129647 4.052211 
ltoes -22.548989 
91
root -8.544287 17.141933 -16.426431 5.612482 6.675832 2.482971
lowerback -8.295491 1.398179 -5.320048 
upperback 2.460768 2.547423 -1.672976 
thorax 7.105657 1.041001 1.586025 
lowerneck -3.835389 -6.964864 -5.582591 
upperneck 6.669498 -9.762704 9.263737 
head 3.342346 -4.689980 3.258596 
rclavicle 0.000000 0.000000 
rhumerus -23.754958 -18.013684 -86.286459 
rradius 44.611809 
rwrist 23.248350 
rhand -18.640117 -5.962429 
rfingers 0.000000 
rthumb 7.652534 -35.803950 
lclavicle 0.000000 0.000000 
lhumerus -42.992651 33.903584 67.774724 
lradius 27.774408 
lwrist -51.064500 
lhand -8.207132 4.305160 
lfingers 0.000000 
lthumb 17.709492 33.518666 
rfemur -8.435998 1.555746 21.261967 
rtibia 28.559649 
rfoot -29.991892 -3.405276 
rtoes -5.640710 
lfemur -32.360625 -1.187804 -21.071983 
ltibia 32.427467 
lfoot -16.752482 3.983774 
ltoes -23.617667 
